# xmcd
#
# Track frame offsets: 
#        150
#        19023
#        37803
#        55617
#        90279
#        133447
#
# Disc length: 2969 seconds
#
# Revision: 6
# Processed by: cddbd v1.5.2PL0 Copyright (c) Steve Scherf et al.
# Submitted via: ExactAudioCopy v0.99pb1
#
DISCID=3f0b9706
DTITLE=Kelly Rowland - Stole
DYEAR=2003
DGENRE=Club
TTITLE0=Stole [Album Version)
TTITLE1=Stole [The Gladiator Remix]
TTITLE2=Stole [D.Elliott Dreambrotha Mix]
TTITLE3=Stole [Maurice's Nu Soul Mix]
TTITLE4=Stole [Bear Who? Nu DnB Mix]
TTITLE5=Stole [Video]
EXTD=By Robert
EXTT0=
EXTT1=
EXTT2=
EXTT3=
EXTT4=
EXTT5=
PLAYORDER=
